<svg height="512pt" viewBox="-27 0 512 512.00056" width="512pt" xmlns="http://www.w3.org/2000/svg"><path d="m137.523438 510.96875c-16.046876 4.300781-32.542969-5.222656-36.839844-21.269531l-99.652344-371.898438c-4.296875-16.046875 5.222656-32.542969 21.269531-36.839843l298.292969-79.929688c16.046875-4.296875 32.539062 5.222656 36.839844 21.269531l99.648437 371.898438c4.300781 16.046875-5.222656 32.542969-21.265625 36.839843zm0 0" fill="#ff7c8c"/><path d="m70.410156 484.703125c-17.066406 0-30.90625-13.839844-30.90625-30.90625v-395.59375c0-17.066406 13.839844-30.902344 30.90625-30.902344h317.296875c17.066407 0 30.90625 13.835938 30.90625 30.902344v395.59375c0 17.066406-13.839843 30.90625-30.90625 30.90625zm0 0" fill="#ffcf5d"/><path d="m39.503906 453.796875c0 17.066406 13.835938 30.90625 30.90625 30.90625h317.296875c17.066407 0 30.90625-13.839844 30.90625-30.90625v-395.59375c0-17.066406-13.839843-30.902344-30.90625-30.902344v395.589844c0 17.070313-13.835937 30.90625-30.90625 30.90625zm0 0" fill="#ffb545"/><path d="m198.152344 89.109375c0-17.070313 13.835937-30.90625 30.90625-30.90625 17.070312 0 30.90625 13.835937 30.90625 30.90625s-13.835938 30.90625-30.90625 30.90625c-17.070313 0-30.90625-13.835937-30.90625-30.90625zm0 0" fill="#ff5368"/><g fill="#35404a"><path d="m110.585938 224.050781h236.941406c4.269531 0 7.726562-3.457031 7.726562-7.726562 0-4.265625-3.457031-7.726563-7.726562-7.726563h-236.941406c-4.265626 0-7.726563 3.460938-7.726563 7.726563 0 4.269531 3.460937 7.726562 7.726563 7.726562zm0 0"/><path d="m347.527344 260.109375h-236.941406c-4.265626 0-7.726563 3.457031-7.726563 7.722656 0 4.269531 3.460937 7.726563 7.726563 7.726563h236.941406c4.269531 0 7.726562-3.457032 7.726562-7.726563 0-4.265625-3.457031-7.722656-7.726562-7.722656zm0 0"/><path d="m265.109375 311.617188h-154.523437c-4.265626 0-7.726563 3.457031-7.726563 7.726562 0 4.265625 3.460937 7.726562 7.726563 7.726562h154.523437c4.265625 0 7.726563-3.460937 7.726563-7.726562 0-4.269531-3.460938-7.726562-7.726563-7.726562zm0 0"/></g></svg>