<?xml version="1.0" encoding="utf-8"?>
<!-- Generator: Adobe Illustrator 24.0.1, SVG Export Plug-In . SVG Version: 6.00 Build 0)  -->
<svg version="1.1" id="Layer_1" xmlns="http://www.w3.org/2000/svg" xmlns:xlink="http://www.w3.org/1999/xlink" x="0px" y="0px"
	 viewBox="0 0 612 792" style="enable-background:new 0 0 612 792;" xml:space="preserve">
<style type="text/css">
	.st0{stroke:#000000;stroke-width:2;stroke-miterlimit:10;}
	.st1{fill:none;stroke:#FFFFFF;stroke-width:0.25;stroke-miterlimit:10;}
	.st2{fill:#FFFFFF;stroke:#000000;stroke-width:0.5;stroke-miterlimit:10;}
	.st3{fill:#FFFFFF;stroke:#000000;stroke-width:0.25;stroke-miterlimit:10;}
	.st4{fill:#FFFFFF;stroke:#000000;stroke-miterlimit:10;}
	.st5{fill:#333333;}
	.st6{fill:#FFFFFF;}
</style>
<g>
	<path d="M534.6,333.2c-1.2-4.5-4.5-7.5-7.3-6.8l-233.1,62.5c-2.8,0.8-4.1,5-2.9,9.5c1.2,4.5,4.5,7.5,7.3,6.8l-13.6,3.6
		c-2.8,0.8-4.1,5-2.9,9.5c1.2,4.5,4.5,7.5,7.3,6.8l-11.3,3c-2.8,0.8-4.1,5-2.9,9.5c1.2,4.5,4.5,7.5,7.3,6.8l85.2-22.8l-101,27.1
		c-2.8,0.8-4.1,5-2.9,9.5c1.2,4.5,4.5,7.5,7.3,6.8l233.1-62.5c2.8-0.8,4.1-5,2.9-9.5c-1.2-4.5-4.5-7.5-7.3-6.8l15.8-4.2
		c2.8-0.8,4.1-5,2.9-9.5c-1.2-4.5-4.4-7.5-7.3-6.8l11.3-3c2.8-0.8,4.1-5,2.9-9.5c-1.2-4.5-4.5-7.5-7.3-6.8l13.6-3.6
		C534.5,342,535.8,337.8,534.6,333.2z"/>
	<path class="st0" d="M534.6,333.2c-1.2-4.5-4.5-7.5-7.3-6.8l-233.1,62.5c-2.8,0.8-4.1,5-2.9,9.5c1.2,4.5,4.5,7.5,7.3,6.8l-13.6,3.6
		c-2.8,0.8-4.1,5-2.9,9.5c1.2,4.5,4.5,7.5,7.3,6.8l5-1.3l-16.3,4.4c-2.8,0.8-4.1,5-2.9,9.5c1.2,4.5,4.5,7.5,7.3,6.8l85.2-22.8
		l-101,27.1c-2.8,0.8-4.1,5-2.9,9.5c1.2,4.5,4.5,7.5,7.3,6.8l233.1-62.5c2.8-0.8,4.1-5,2.9-9.5c-1.2-4.5-4.5-7.5-7.3-6.8l15.8-4.2
		c2.8-0.8,4.1-5,2.9-9.5c-1.2-4.5-4.4-7.5-7.3-6.8l11.3-3c2.8-0.8,4.1-5,2.9-9.5c-1.2-4.5-4.5-7.5-7.3-6.8l13.6-3.6
		C534.5,342,535.8,337.8,534.6,333.2z"/>
	<path class="st0" d="M346.2,448.7l-101-27.1l85.2,22.8c2.8,0.8,6.1-2.3,7.3-6.8c1.2-4.5-0.1-8.8-2.9-9.5l-16.3-4.4l5,1.3
		c2.8,0.8,6.1-2.3,7.3-6.8c1.2-4.5-0.1-8.8-2.9-9.5l-13.6-3.6c2.8,0.7,6.1-2.3,7.3-6.8c1.2-4.5-0.1-8.8-2.9-9.5L85.5,326.5
		c-2.8-0.8-6.1,2.3-7.3,6.8c-1.2,4.5,0.1,8.8,2.9,9.5l13.6,3.6c-2.8-0.8-6.1,2.3-7.3,6.8c-1.2,4.5,0.1,8.8,2.9,9.5l11.3,3
		c-2.8-0.7-6.1,2.3-7.3,6.8c-1.2,4.5,0.1,8.8,2.9,9.5l15.8,4.2c-2.8-0.7-6.1,2.3-7.3,6.8c-1.2,4.5,0.1,8.8,2.9,9.5L341.9,465
		c2.8,0.8,6.1-2.3,7.3-6.8C350.4,453.7,349.1,449.5,346.2,448.7z"/>
	<g>
		<path class="st1" d="M534.6,333.2c1.2,4.5-0.1,8.8-2.9,9.5l-233.1,62.5c-2.8,0.8-6.1-2.3-7.3-6.8l0,0c-1.2-4.5,0.1-8.8,2.9-9.5
			l233.1-62.5C530.1,325.7,533.4,328.7,534.6,333.2L534.6,333.2z"/>
		<path class="st1" d="M525.4,353.2c1.2,4.5-0.1,8.8-2.9,9.5l-233.1,62.4c-2.8,0.8-6.1-2.3-7.3-6.8l0,0c-1.2-4.5,0.1-8.8,2.9-9.5
			l233.1-62.5C520.9,345.7,524.2,348.7,525.4,353.2L525.4,353.2z"/>
		<path class="st1" d="M518.5,372.5c1.2,4.5-0.1,8.8-2.9,9.5l-233.1,62.5c-2.8,0.8-6.1-2.3-7.3-6.8l0,0c-1.2-4.5,0.1-8.8,2.9-9.5
			l233.1-62.5C514,365,517.2,368,518.5,372.5L518.5,372.5z"/>
		<path class="st1" d="M507,393.1c1.2,4.5-0.1,8.8-2.9,9.5L271,465c-2.8,0.8-6.1-2.3-7.3-6.8l0,0c-1.2-4.5,0.1-8.8,2.9-9.5
			l233.1-62.5C502.5,385.5,505.8,388.6,507,393.1L507,393.1z"/>
	</g>
	<g>
		<path class="st1" d="M78.3,333.2c-1.2,4.5,0.1,8.8,2.9,9.5l233.1,62.5c2.8,0.8,6.1-2.3,7.3-6.8l0,0c1.2-4.5-0.1-8.8-2.9-9.5
			L85.5,326.5C82.7,325.7,79.5,328.7,78.3,333.2L78.3,333.2z"/>
		<path class="st1" d="M87.5,353.2c-1.2,4.5,0.1,8.8,2.9,9.5l233.1,62.4c2.8,0.8,6.1-2.3,7.3-6.8l0,0c1.2-4.5-0.1-8.8-2.9-9.5
			L94.8,346.4C91.9,345.7,88.7,348.7,87.5,353.2L87.5,353.2z"/>
		<path class="st1" d="M94.4,372.5c-1.2,4.5,0.1,8.8,2.9,9.5l233.1,62.5c2.8,0.8,6.1-2.3,7.3-6.8l0,0c1.2-4.5-0.1-8.8-2.9-9.5
			l-233.1-62.5C98.9,365,95.6,368,94.4,372.5L94.4,372.5z"/>
		<path class="st1" d="M105.9,393.1c-1.2,4.5,0.1,8.8,2.9,9.5L341.9,465c2.8,0.8,6.1-2.3,7.3-6.8l0,0c1.2-4.5-0.1-8.8-2.9-9.5
			l-233.1-62.5C110.4,385.5,107.1,388.6,105.9,393.1L105.9,393.1z"/>
	</g>
	<path class="st2" d="M477.1,357.6c-0.8-4.6-3.3-8-5.6-7.6l-187.7,33.1c-2.3,0.4-3.4,4.4-2.6,9c0.8,4.6,3.3,8,5.6,7.6l-10.9,1.9
		c-2.3,0.4-3.4,4.4-2.6,9c0.8,4.6,3.3,8,5.6,7.6l-9.1,1.6c-2.3,0.4-3.4,4.4-2.6,9c0.8,4.6,3.3,8,5.6,7.6l60.6-10.7l-73.3,12.9
		c-2.3,0.4-3.4,4.4-2.6,9c0.8,4.6,3.3,8,5.6,7.6l187.7-33.1c2.3-0.4,3.4-4.4,2.6-9c-0.8-4.6-3.3-8-5.6-7.6l12.7-2.2
		c2.3-0.4,3.4-4.4,2.6-9c-0.8-4.6-3.3-8-5.6-7.6l-50.3,8.9l59.4-10.5c2.3-0.4,3.4-4.4,2.6-9c-0.8-4.6-3.3-8-5.6-7.6l10.9-1.9
		C476.7,366.2,477.9,362.2,477.1,357.6z"/>
	<g>
		<path class="st3" d="M477.1,357.6c0.8,4.6-0.4,8.6-2.6,9l-187.7,33.1c-2.3,0.4-4.8-3-5.6-7.6l0,0c-0.8-4.6,0.4-8.6,2.6-9
			L471.5,350C473.8,349.6,476.3,353,477.1,357.6L477.1,357.6z"/>
		<path class="st3" d="M469.1,376.1c0.8,4.6-0.4,8.6-2.6,9l-187.7,33.1c-2.3,0.4-4.8-3-5.6-7.6l0,0c-0.8-4.6,0.4-8.6,2.6-9
			l187.7-33.1C465.8,368.1,468.3,371.5,469.1,376.1L469.1,376.1z"/>
		<path class="st3" d="M462.9,394.4c0.8,4.6-0.4,8.6-2.6,9l-187.7,33.1c-2.3,0.4-4.8-3-5.6-7.6l0,0c-0.8-4.6,0.4-8.6,2.6-9
			l187.7-33.1C459.6,386.4,462.1,389.8,462.9,394.4L462.9,394.4z"/>
		<path class="st3" d="M453.1,413.2c0.8,4.6-0.4,8.6-2.6,9l-187.7,33.1c-2.3,0.4-4.8-3-5.6-7.6l0,0c-0.8-4.6,0.4-8.6,2.6-9
			l187.7-33.1C449.8,405.2,452.2,408.6,453.1,413.2L453.1,413.2z"/>
	</g>
	<path class="st2" d="M353.1,438.7l-73.3-12.9l60.6,10.7c2.3,0.4,4.8-3,5.6-7.6c0.8-4.6-0.4-8.6-2.6-9l-9.1-1.6
		c2.3,0.4,4.7-3,5.6-7.6c0.8-4.6-0.4-8.6-2.6-9l-10.9-1.9c2.3,0.4,4.7-3,5.6-7.6c0.8-4.6-0.4-8.6-2.6-9L141.4,350
		c-2.3-0.4-4.8,3-5.6,7.6c-0.8,4.6,0.4,8.6,2.6,9l10.9,1.9c-2.3-0.4-4.8,3-5.6,7.6c-0.8,4.6,0.4,8.6,2.6,9l59.4,10.5l-50.3-8.9
		c-2.3-0.4-4.8,3-5.6,7.6c-0.8,4.6,0.4,8.6,2.6,9l12.7,2.2c-2.3-0.4-4.7,3-5.6,7.6c-0.8,4.6,0.4,8.6,2.6,9l187.7,33.1
		c2.3,0.4,4.8-3,5.6-7.6C356.5,443.2,355.3,439.1,353.1,438.7z"/>
	<g>
		<path class="st3" d="M135.8,357.6c-0.8,4.6,0.4,8.6,2.6,9l187.7,33.1c2.3,0.4,4.8-3,5.6-7.6l0,0c0.8-4.6-0.4-8.6-2.6-9L141.4,350
			C139.1,349.6,136.6,353,135.8,357.6L135.8,357.6z"/>
		<path class="st3" d="M143.8,376.1c-0.8,4.6,0.4,8.6,2.6,9l187.7,33.1c2.3,0.4,4.8-3,5.6-7.6l0,0c0.8-4.6-0.4-8.6-2.6-9
			l-187.7-33.1C147.1,368.1,144.6,371.5,143.8,376.1L143.8,376.1z"/>
		<path class="st3" d="M150,394.4c-0.8,4.6,0.4,8.6,2.6,9l187.7,33.1c2.3,0.4,4.8-3,5.6-7.6l0,0c0.8-4.6-0.4-8.6-2.6-9l-187.7-33.1
			C153.3,386.4,150.8,389.8,150,394.4L150,394.4z"/>
		<path class="st3" d="M159.8,413.2c-0.8,4.6,0.4,8.6,2.6,9l187.7,33.1c2.3,0.4,4.8-3,5.6-7.6l0,0c0.8-4.6-0.4-8.6-2.6-9
			l-187.7-33.1C163.1,405.2,160.6,408.6,159.8,413.2L159.8,413.2z"/>
	</g>
	<g>
		<path class="st4" d="M361,408.5c0,30.8-24.9,55.7-55.7,55.7c-30.8,0-55.7-24.9-55.7-55.7c0-30.8,24.9-55.7,55.7-55.7
			C336,352.8,361,377.7,361,408.5z"/>
		<path class="st5" d="M352.3,408.7c0,26.2-21.2,47.4-47.4,47.4c-26.2,0-47.4-21.2-47.4-47.4c0-26.2,21.2-47.4,47.4-47.4
			C331.1,361.3,352.3,382.5,352.3,408.7z"/>
		<polygon class="st6" points="304,367.4 316.3,392.2 343.7,396.2 323.8,415.5 328.5,442.8 304,429.9 279.6,442.8 284.2,415.5 
			264.4,396.2 291.8,392.2 		"/>
	</g>
</g>
</svg>
